<?xml version="1.0" encoding="utf-8"?>
<!-- Generator: Adobe Illustrator 26.5.0, SVG Export Plug-In . SVG Version: 6.00 Build 0)  -->
<svg version="1.1" id="Calque_1" xmlns="http://www.w3.org/2000/svg" xmlns:xlink="http://www.w3.org/1999/xlink" x="0px" y="0px"
	 viewBox="0 0 1024 768" style="enable-background:new 0 0 1024 768;" xml:space="preserve">
<style type="text/css">
	.st0{fill:#51D9E5;}
	.st1{fill:#5AF0FE;}
	.st2{fill:#4BB7E5;}
	.st3{fill:#54CBFE;}
	.st4{fill:#53565C;}
	.st5{fill:#70737C;}
	.st6{fill:none;}
</style>
<path class="st0" d="M905,374.5c-0.6,3.2-1.2,6.3-1.7,9.5c-2.7-0.6-5-2.2-7.9-2.4c-5.7-0.5-10,2.2-14.3,5.1
	c-9.2,6.3-23,6.2-31.7-0.6c-3.5-2.7-7.5-4.6-12.2-4.5c0-3,0-6,0-9c5.9-0.5,11,1.5,15.7,4.5c10.1,6.6,15.7,6.5,25.8-0.2
	c7.4-4.9,15.5-5.7,24-3.2C903.4,374.1,904.2,374.3,905,374.5z"/>
<path class="st1" d="M837.1,372.6c0,3,0,6,0,9l0,0c-4.2-0.1-7.7,1.6-10.9,3.8c-11.5,7.8-22.2,7.9-33.7,0.4c-2.2-1.5-4.5-2.8-7.1-3.6
	c-5.1-1.6-9.8,0.1-14.4,1.8c-0.5-3-1-6.1-1.6-9.1c9.6-4.3,18.8-3.3,27.3,2.5c9,6.1,15.5,6.2,24.5,0.2
	C826,374.4,831.1,372.3,837.1,372.6z"/>
<path class="st2" d="M837.1,381.6c4.7-0.1,8.8,1.8,12.3,4.5c8.8,6.8,22.7,6.9,31.9,0.6c4.3-2.9,8.6-5.6,14.3-5.1
	c2.9,0.2,5.2,1.9,8,2.4c-1.3,8-2.6,15.9-3.9,23.9c-2.4,14-5.1,28-7.2,42.1c-1.2,7.7-7.3,12.7-15,12.9c-13.5,0.3-27-0.1-40.4,0.3
	c0-0.2,0-0.3,0-0.5C837.1,435.6,837.1,408.6,837.1,381.6L837.1,381.6z"/>
<path class="st3" d="M837.1,381.7c0,27,0,54,0,81c-13.9,0-27.9,0.1-41.8,0c-6.6-0.1-11.8-4.6-13-11.3c-3.9-22.1-7.6-44.2-11.4-66.4
	c0-0.3,0-0.6,0-0.9c4.7-1.8,9.3-3.4,14.4-1.8c2.6,0.8,4.9,2.2,7.1,3.6c11.5,7.5,22.2,7.3,33.7-0.4
	C829.5,383.2,832.9,381.5,837.1,381.7z"/>
<path class="st4" d="M895.6,485.4c-0.1,3-2.2,4.4-6.9,4.4c-17.2,0-34.5,0-51.7,0v-9c17.2,0,34.4,0,51.7,0
	C893.4,480.8,895.7,482.3,895.6,485.4z"/>
<path class="st5" d="M837,480.8v9h-0.2c-17.2,0-34.4,0-51.6,0c-1.1,0-2.2,0-3.3-0.1c-2.5-0.4-3.9-2-3.9-4.5c0.1-2.4,1.5-3.9,3.9-4.2
	c1-0.2,2-0.1,3-0.1C802.2,480.8,819.6,480.8,837,480.8z"/>
<path class="st5" d="M837,462.9v8.3c-12.3,0-24.5,0-36.8,0c-13.6,0-21.9-7.3-24.1-20.8c-3.7-23-7.5-46-11.3-69
	c-1.1-6.9-2.2-13.8-3.2-20.7c-0.5-3.1,0.6-5,3.1-5.4c2.6-0.4,4.4,1,4.9,4.1c1.7,10,3.3,20.1,5,30.1c3.3,20.3,6.6,40.6,10.1,60.8
	c1.5,8.5,6.7,12.9,15.4,12.8C812.3,463.1,824.7,463,837,462.9z"/>
<path class="st4" d="M914.2,360.6c-5,30.1-10,60.2-14.8,90.4c-2.2,13.9-13.1,20.9-23.6,20.5c-12.6-0.4-25.2-0.1-37.8-0.1v-0.2h-1
	v-8.3c8,0,15.9-0.1,23.8-0.1c5.6,0,11.2,0.1,16.8-0.2c7.2-0.5,11.7-4.9,12.9-12c3.6-21.9,7.2-43.8,10.8-65.7
	c1.4-8.6,2.9-17.1,4.3-25.7c0.6-3.3,2.3-4.7,5.4-4.1C913.5,355.6,914.7,357.7,914.2,360.6z"/>
<line class="st6" x1="837" y1="462.9" x2="837" y2="436"/>
</svg>
